<?xml version="1.0" encoding="utf-8"?><svg viewBox="0 0 20 20" xmlns="http://www.w3.org/2000/svg" xmlns:xlink="http://www.w3.org/1999/xlink"><style>:root>svg{display:none}:root>svg:target{display:block}</style><svg fill="none" viewBox="0 0 20 20" id="ArrowLeft" xmlns="http://www.w3.org/2000/svg"><path d="M7 10l-.566-.566a.8.8 0 000 1.132L7 10zm3.434 4.566a.8.8 0 001.132-1.132l-1.132 1.132zm1.132-8a.8.8 0 00-1.132-1.132l1.132 1.132zm0 6.868l-4-4-1.132 1.132 4 4 1.132-1.132zm-4-2.868l4-4-1.132-1.132-4 4 1.132 1.132z" fill="#101828"/></svg><svg fill="none" viewBox="0 0 20 20" id="ArrowRight" xmlns="http://www.w3.org/2000/svg"><path d="M13 10l.566.566a.8.8 0 000-1.132L13 10zM9.566 5.434a.8.8 0 00-1.132 1.132l1.132-1.132zm-1.132 8a.8.8 0 001.132 1.132l-1.132-1.132zm0-6.868l4 4 1.132-1.132-4-4-1.132 1.132zm4 2.868l-4 4 1.132 1.132 4-4-1.132-1.132z" fill="#D0D5DD"/></svg><svg fill="none" viewBox="0 0 20 20" id="Arrow_Down" xmlns="http://www.w3.org/2000/svg"><path d="M10 12l-.566.566a.8.8 0 001.132 0L10 12zm4.566-3.434a.8.8 0 00-1.132-1.132l1.132 1.132zm-8-1.132a.8.8 0 00-1.132 1.132l1.132-1.132zm6.868 0l-4 4 1.132 1.132 4-4-1.132-1.132zm-2.868 4l-4-4-1.132 1.132 4 4 1.132-1.132z" fill="#101828"/></svg><svg fill="none" viewBox="0 0 20 20" id="Browse" xmlns="http://www.w3.org/2000/svg"><path d="M13.392 6.608l.759.253a.8.8 0 00-1.012-1.012l.253.759zm-1.696 5.088l.253.759a.8.8 0 00.506-.506l-.759-.253zm-5.088 1.696l-.759-.253a.8.8 0 001.012 1.012l-.253-.759zm1.696-5.088l-.253-.759a.8.8 0 00-.506.506l.759.253zM17.2 10a7.2 7.2 0 01-7.2 7.2v1.6a8.8 8.8 0 008.8-8.8h-1.6zM10 17.2A7.2 7.2 0 012.8 10H1.2a8.8 8.8 0 008.8 8.8v-1.6zM2.8 10A7.2 7.2 0 0110 2.8V1.2A8.8 8.8 0 001.2 10h1.6zM10 2.8a7.2 7.2 0 017.2 7.2h1.6A8.8 8.8 0 0010 1.2v1.6zm2.633 3.555l-1.696 5.088 1.518.506 1.696-5.088-1.518-.506zm-1.19 4.582l-5.088 1.696.506 1.518 5.088-1.696-.506-1.518zm-4.076 2.708l1.696-5.088-1.518-.506-1.696 5.088 1.518.506zm1.19-4.582l5.088-1.696-.506-1.518-5.088 1.696.506 1.518z" fill="#000"/></svg><svg fill="none" viewBox="0 0 20 20" id="Cart" xmlns="http://www.w3.org/2000/svg"><path d="M1 1.2a.8.8 0 100 1.6V1.2zm3.273.8l.78-.174a.8.8 0 00-.78-.626V2zm2.192 9.84l.785-.158a.695.695 0 00-.004-.017l-.78.175zm1.637 1.303v-.8h-.015l.015.8zm7.953 0l.015-.8h-.015v.8zm1.636-1.304l-.78-.176a.525.525 0 00-.004.02l.784.156zM19 6.048l.78.176a.8.8 0 00-.78-.976v.8zm-13.91-.8a.8.8 0 100 1.6v-1.6zM7.565 17.19v.001l-.003.003a.02.02 0 01-.006.004.024.024 0 01-.01.002v1.6c.886 0 1.619-.713 1.619-1.61h-1.6zm-.019.01c-.005 0-.008 0-.01-.002a.02.02 0 01-.005-.004.011.011 0 01-.003-.003s0 .001 0 0h-1.6c0 .896.733 1.609 1.618 1.609v-1.6zm-.018-.01c0-.001 0 0 0 0l.003-.003a.02.02 0 01.006-.004.024.024 0 01.01-.002v-1.6c-.886 0-1.619.713-1.619 1.61h1.6zm.018-.009c.006 0 .008 0 .01.002a.02.02 0 01.006.004l.003.003s0-.001 0 0h1.6c0-.896-.733-1.609-1.619-1.609v1.6zm9.019.01c0 .001 0 0 0 0l-.003.003a.02.02 0 01-.006.004.024.024 0 01-.01.002v1.6c.886 0 1.619-.713 1.619-1.61h-1.6zm-.018.009c-.006 0-.008 0-.01-.002a.02.02 0 01-.006-.004l-.003-.003s0 .001 0 0h-1.6c0 .896.733 1.609 1.619 1.609v-1.6zm-.019-.01c0-.001 0 0 0 0l.003-.003a.02.02 0 01.006-.004.024.024 0 01.01-.002v-1.6c-.886 0-1.619.713-1.619 1.61h1.6zm.018-.009c.006 0 .008 0 .01.002a.02.02 0 01.006.004l.003.003s0-.001 0 0h1.6c0-.896-.733-1.609-1.619-1.609v1.6zM1 2.8h3.273V1.2H1v1.6zm2.492-.626l2.193 9.84 1.561-.348-2.192-9.84-1.562.348zm2.19 9.823c.111.559.418 1.06.864 1.414l.997-1.252a.816.816 0 01-.293-.477l-1.569.315zm.864 1.414a2.448 2.448 0 001.571.532l-.03-1.6a.847.847 0 01-.544-.184l-.997 1.252zm1.556.532h7.953v-1.6H8.102v1.6zm7.937 0c.57.01 1.126-.177 1.571-.532l-.996-1.252a.847.847 0 01-.544.184l-.03 1.6zm1.571-.532c.446-.355.753-.855.865-1.414l-1.568-.315a.816.816 0 01-.293.477l.996 1.252zm.861-1.395l1.31-5.792-1.561-.353-1.31 5.792 1.561.353zM19 5.248H5.09v1.6H19v-1.6z" fill="#101828"/></svg><svg fill="none" viewBox="0 0 20 20" id="Cross" xmlns="http://www.w3.org/2000/svg"><path d="M14.566 6.566a.8.8 0 00-1.132-1.132l1.132 1.132zm-9.132 6.868a.8.8 0 001.132 1.132l-1.132-1.132zm1.132-8a.8.8 0 00-1.132 1.132l1.132-1.132zm6.868 9.132a.8.8 0 001.132-1.132l-1.132 1.132zm0-9.132l-8 8 1.132 1.132 8-8-1.132-1.132zm-8 1.132l8 8 1.132-1.132-8-8-1.132 1.132z" fill="#fff"/></svg><svg fill="none" viewBox="0 0 20 20" id="Cross_Circle" xmlns="http://www.w3.org/2000/svg"><path d="M12.966 8.166a.8.8 0 00-1.132-1.132l1.132 1.132zm-5.932 3.668a.8.8 0 001.132 1.132l-1.132-1.132zm1.132-4.8a.8.8 0 00-1.132 1.132l1.132-1.132zm3.668 5.932a.8.8 0 001.132-1.132l-1.132 1.132zM17.2 10a7.2 7.2 0 01-7.2 7.2v1.6a8.8 8.8 0 008.8-8.8h-1.6zM10 17.2A7.2 7.2 0 012.8 10H1.2a8.8 8.8 0 008.8 8.8v-1.6zM2.8 10A7.2 7.2 0 0110 2.8V1.2A8.8 8.8 0 001.2 10h1.6zM10 2.8a7.2 7.2 0 017.2 7.2h1.6A8.8 8.8 0 0010 1.2v1.6zm1.834 4.234l-4.8 4.8 1.132 1.132 4.8-4.8-1.132-1.132zm-4.8 1.132l4.8 4.8 1.132-1.132-4.8-4.8-1.132 1.132z" fill="#101828"/></svg><svg fill="none" viewBox="0 0 12 12" id="Fill=False" xmlns="http://www.w3.org/2000/svg"><path d="M6 0l2.04 3.375 3.96.827-2.7 2.912L9.708 11 6 9.425 2.292 11 2.7 7.114 0 4.202l3.96-.827L6 0z" fill="#EAECF0"/></svg><svg fill="none" viewBox="0 0 12 12" id="Fill=True" xmlns="http://www.w3.org/2000/svg"><path d="M6 0l2.04 3.375 3.96.827-2.7 2.912L9.708 11 6 9.425 2.292 11 2.7 7.114 0 4.202l3.96-.827L6 0z" fill="#FEC84B"/><path d="M2.292 11L6 9.425V0L3.96 3.375 0 4.202l2.7 2.912L2.292 11z" fill="#FEC84B"/></svg><svg fill="none" viewBox="0 0 12 12" id="Fill=half" xmlns="http://www.w3.org/2000/svg"><path d="M6 0l2.04 3.375 3.96.827-2.7 2.912L9.708 11 6 9.425 2.292 11 2.7 7.114 0 4.202l3.96-.827L6 0z" fill="#EAECF0"/><path d="M2.292 11L6 9.425V0L3.96 3.375 0 4.202l2.7 2.912L2.292 11z" fill="#FEC84B"/></svg><svg fill="none" viewBox="0 0 20 20" id="Filter" xmlns="http://www.w3.org/2000/svg"><path d="M2 4.2a.8.8 0 100 1.6V4.2zm16 1.6a.8.8 0 000-1.6v1.6zM4.667 9.2a.8.8 0 100 1.6V9.2zm10.666 1.6a.8.8 0 100-1.6v1.6zm-8 3.4a.8.8 0 000 1.6v-1.6zm5.334 1.6a.8.8 0 000-1.6v1.6zM2 5.8h16V4.2H2v1.6zm2.667 5h10.666V9.2H4.667v1.6zm2.666 5h5.334v-1.6H7.333v1.6z" fill="#101828"/></svg><svg fill="none" viewBox="0 0 20 20" id="Home" xmlns="http://www.w3.org/2000/svg"><path d="M3 7.6l-.5-.625a.8.8 0 00-.3.625H3zM10 2l.5-.625a.8.8 0 00-1 0L10 2zm7 5.6h.8a.8.8 0 00-.3-.625L17 7.6zM3 16.4h-.8.8zM6.867 18a.8.8 0 001.6 0h-1.6zm.8-8v-.8a.8.8 0 00-.8.8h.8zm4.666 0h.8a.8.8 0 00-.8-.8v.8zm-.8 8a.8.8 0 001.6 0h-1.6zM3.5 8.225l7-5.6-1-1.25-7 5.6 1 1.25zm6-5.6l7 5.6 1-1.25-7-5.6-1 1.25zM16.2 7.6v8.8h1.6V7.6h-1.6zm0 8.8c0 .22-.085.425-.23.574l1.148 1.115c.44-.452.682-1.06.682-1.689h-1.6zm-.23.574a.734.734 0 01-.526.226v1.6c.633 0 1.234-.259 1.674-.711l-1.147-1.115zm-.526.226H4.556v1.6h10.888v-1.6zm-10.888 0a.734.734 0 01-.527-.226l-1.147 1.115c.44.453 1.041.711 1.674.711v-1.6zm-.527-.226A.824.824 0 013.8 16.4H2.2c0 .63.243 1.237.682 1.689l1.147-1.115zM3.8 16.4V7.6H2.2v8.8h1.6zM8.467 18v-8h-1.6v8h1.6zm-.8-7.2h4.666V9.2H7.667v1.6zm3.866-.8v8h1.6v-8h-1.6z" fill="#000"/></svg><svg fill="none" viewBox="0 0 20 20" id="Minus_Circle" xmlns="http://www.w3.org/2000/svg"><path d="M6.8 9.2a.8.8 0 100 1.6V9.2zm6.4 1.6a.8.8 0 000-1.6v1.6zm4-.8a7.2 7.2 0 01-7.2 7.2v1.6a8.8 8.8 0 008.8-8.8h-1.6zM10 17.2A7.2 7.2 0 012.8 10H1.2a8.8 8.8 0 008.8 8.8v-1.6zM2.8 10A7.2 7.2 0 0110 2.8V1.2A8.8 8.8 0 001.2 10h1.6zM10 2.8a7.2 7.2 0 017.2 7.2h1.6A8.8 8.8 0 0010 1.2v1.6zm-3.2 8h6.4V9.2H6.8v1.6z" fill="#101828"/></svg><svg fill="none" viewBox="0 0 20 20" id="Pin" xmlns="http://www.w3.org/2000/svg"><path d="M16.5 8.545h.8-.8zM10 18l-.446.664a.8.8 0 00.892 0L10 18zM3.5 8.545h-.8.8zM10 2v.8V2zm5.7 6.545c0 2.226-1.44 4.396-3.033 6.089a21.218 21.218 0 01-3.052 2.66l-.048.033-.011.007-.002.002L10 18a120.096 120.096 0 00.447.663h.002l.004-.004.017-.011.06-.042a20.631 20.631 0 00.986-.743 22.85 22.85 0 002.317-2.133c1.657-1.762 3.467-4.32 3.467-7.185h-1.6zM10 18l.446-.664-.002-.002a5.818 5.818 0 01-.253-.179 21.224 21.224 0 01-2.859-2.522C5.74 12.942 4.3 10.772 4.3 8.546H2.7c0 2.865 1.81 5.423 3.467 7.185a22.838 22.838 0 003.302 2.876l.06.042.018.011.005.004h.001c0 .001.001.001.447-.663zM4.3 8.545c0-1.525.602-2.987 1.671-4.064L4.836 3.353A7.369 7.369 0 002.7 8.545h1.6zm1.671-4.064A5.677 5.677 0 0110 2.8V1.2a7.277 7.277 0 00-5.164 2.153l1.135 1.128zM10 2.8c1.51 0 2.96.604 4.028 1.68l1.136-1.127A7.277 7.277 0 0010 1.2v1.6zm4.028 1.68A5.769 5.769 0 0115.7 8.546h1.6a7.369 7.369 0 00-2.136-5.192l-1.136 1.128zm-2.661 4.065c0 .769-.618 1.382-1.367 1.382v1.6a2.974 2.974 0 002.967-2.982h-1.6zM10 9.927c-.75 0-1.367-.613-1.367-1.382h-1.6A2.974 2.974 0 0010 11.527v-1.6zM8.633 8.545c0-.768.617-1.381 1.367-1.381v-1.6a2.974 2.974 0 00-2.967 2.981h1.6zM10 7.164c.75 0 1.367.613 1.367 1.381h1.6A2.974 2.974 0 0010 5.564v1.6z" fill="#101828"/></svg><svg fill="none" viewBox="0 0 20 20" id="Plus_Circle" xmlns="http://www.w3.org/2000/svg"><path d="M10.8 6.8a.8.8 0 00-1.6 0h1.6zm-1.6 6.4a.8.8 0 001.6 0H9.2zm-2.4-4a.8.8 0 100 1.6V9.2zm6.4 1.6a.8.8 0 000-1.6v1.6zm4-.8a7.2 7.2 0 01-7.2 7.2v1.6a8.8 8.8 0 008.8-8.8h-1.6zM10 17.2A7.2 7.2 0 012.8 10H1.2a8.8 8.8 0 008.8 8.8v-1.6zM2.8 10A7.2 7.2 0 0110 2.8V1.2A8.8 8.8 0 001.2 10h1.6zM10 2.8a7.2 7.2 0 017.2 7.2h1.6A8.8 8.8 0 0010 1.2v1.6zm-.8 4v6.4h1.6V6.8H9.2zm-2.4 4h6.4V9.2H6.8v1.6z" fill="#fff"/></svg><svg fill="none" viewBox="0 0 20 20" id="Search" xmlns="http://www.w3.org/2000/svg"><path d="M17.434 18.566a.8.8 0 001.132-1.132l-1.132 1.132zM14.7 13.568a.8.8 0 00-1.131 1.131l1.131-1.131zm.723-4.457a6.311 6.311 0 01-6.31 6.311v1.6a7.911 7.911 0 007.91-7.91h-1.6zm-6.31 6.311A6.311 6.311 0 012.8 9.112H1.2a7.911 7.911 0 007.911 7.91v-1.6zM2.8 9.112A6.311 6.311 0 019.111 2.8V1.2A7.911 7.911 0 001.2 9.111h1.6zM9.111 2.8a6.311 6.311 0 016.311 6.311h1.6A7.911 7.911 0 009.112 1.2v1.6zm9.455 14.634l-3.867-3.866-1.131 1.131 3.866 3.867 1.132-1.132z" fill="#101828"/></svg><svg fill="none" viewBox="0 0 20 20" id="State=1" xmlns="http://www.w3.org/2000/svg"><path d="M17.2 10a.8.8 0 001.6 0h-1.6zM10 18.8a.8.8 0 000-1.6v1.6zm0-1.6A7.2 7.2 0 012.8 10H1.2a8.8 8.8 0 008.8 8.8v-1.6zM2.8 10A7.2 7.2 0 0110 2.8V1.2A8.8 8.8 0 001.2 10h1.6zM10 2.8a7.2 7.2 0 017.2 7.2h1.6A8.8 8.8 0 0010 1.2v1.6z" fill="#fff"/></svg><svg fill="none" viewBox="0 0 20 20" id="State=2" xmlns="http://www.w3.org/2000/svg"><path d="M10 17.2a.8.8 0 000 1.6v-1.6zM1.2 10a.8.8 0 001.6 0H1.2zm1.6 0A7.2 7.2 0 0110 2.8V1.2A8.8 8.8 0 001.2 10h1.6zM10 2.8a7.2 7.2 0 017.2 7.2h1.6A8.8 8.8 0 0010 1.2v1.6zm7.2 7.2a7.2 7.2 0 01-7.2 7.2v1.6a8.8 8.8 0 008.8-8.8h-1.6z" fill="#fff"/></svg><svg fill="none" viewBox="0 0 20 20" id="State=3" xmlns="http://www.w3.org/2000/svg"><path d="M2.8 10a.8.8 0 10-1.6 0h1.6zM10 1.2a.8.8 0 100 1.6V1.2zm0 1.6a7.2 7.2 0 017.2 7.2h1.6A8.8 8.8 0 0010 1.2v1.6zm7.2 7.2a7.2 7.2 0 01-7.2 7.2v1.6a8.8 8.8 0 008.8-8.8h-1.6zM10 17.2A7.2 7.2 0 012.8 10H1.2a8.8 8.8 0 008.8 8.8v-1.6z" fill="#fff"/></svg><svg fill="none" viewBox="0 0 20 20" id="State=4" xmlns="http://www.w3.org/2000/svg"><path d="M10 2.8a.8.8 0 000-1.6v1.6zm8.8 7.2a.8.8 0 00-1.6 0h1.6zm-1.6 0a7.2 7.2 0 01-7.2 7.2v1.6a8.8 8.8 0 008.8-8.8h-1.6zM10 17.2A7.2 7.2 0 012.8 10H1.2a8.8 8.8 0 008.8 8.8v-1.6zM2.8 10A7.2 7.2 0 0110 2.8V1.2A8.8 8.8 0 001.2 10h1.6z" fill="#fff"/></svg><svg fill="none" viewBox="0 0 20 20" id="State=5" xmlns="http://www.w3.org/2000/svg"><path d="M17.2 10a.8.8 0 001.6 0h-1.6zM10 18.8a.8.8 0 000-1.6v1.6zm0-1.6A7.2 7.2 0 012.8 10H1.2a8.8 8.8 0 008.8 8.8v-1.6zM2.8 10A7.2 7.2 0 0110 2.8V1.2A8.8 8.8 0 001.2 10h1.6zM10 2.8a7.2 7.2 0 017.2 7.2h1.6A8.8 8.8 0 0010 1.2v1.6z" fill="#fff"/></svg><svg fill="none" viewBox="0 0 20 20" id="User" xmlns="http://www.w3.org/2000/svg"><path d="M16.2 18a.8.8 0 001.6 0h-1.6zm-2.7-5.333v-.8.8zm-7 0v-.8.8zM3 16.222h-.8.8zM2.2 18a.8.8 0 001.6 0H2.2zm15.6 0v-1.778h-1.6V18h1.6zm0-1.778c0-1.15-.45-2.257-1.255-3.075l-1.14 1.122c.508.516.795 1.218.795 1.953h1.6zm-1.255-3.075a4.273 4.273 0 00-3.045-1.28v1.6c.712 0 1.397.287 1.905.802l1.14-1.122zm-3.045-1.28h-7v1.6h7v-1.6zm-7 0c-1.145 0-2.24.462-3.045 1.28l1.14 1.122a2.673 2.673 0 011.905-.802v-1.6zm-3.045 1.28A4.384 4.384 0 002.2 16.222h1.6c0-.735.287-1.437.795-1.953l-1.14-1.122zM2.2 16.222V18h1.6v-1.778H2.2zM12.7 5.556c0 1.533-1.22 2.755-2.7 2.755v1.6c2.387 0 4.3-1.962 4.3-4.355h-1.6zM10 8.31c-1.48 0-2.7-1.222-2.7-2.755H5.7C5.7 7.949 7.613 9.91 10 9.91v-1.6zM7.3 5.556C7.3 4.022 8.52 2.8 10 2.8V1.2c-2.387 0-4.3 1.962-4.3 4.356h1.6zM10 2.8c1.48 0 2.7 1.222 2.7 2.756h1.6C14.3 3.162 12.387 1.2 10 1.2v1.6z" fill="#101828"/></svg><svg fill="none" viewBox="0 0 20 20" id="close" xmlns="http://www.w3.org/2000/svg"><path d="M14.566 6.566a.8.8 0 00-1.132-1.132l1.132 1.132zm-9.132 6.868a.8.8 0 001.132 1.132l-1.132-1.132zm1.132-8a.8.8 0 00-1.132 1.132l1.132-1.132zm6.868 9.132a.8.8 0 001.132-1.132l-1.132 1.132zm0-9.132l-8 8 1.132 1.132 8-8-1.132-1.132zm-8 1.132l8 8 1.132-1.132-8-8-1.132 1.132z" fill="#7F56D9"/></svg><svg fill="none" viewBox="0 0 20 20" id="min" xmlns="http://www.w3.org/2000/svg"><path d="M6.8 9.2a.8.8 0 100 1.6V9.2zm6.4 1.6a.8.8 0 000-1.6v1.6zm4-.8a7.2 7.2 0 01-7.2 7.2v1.6a8.8 8.8 0 008.8-8.8h-1.6zM10 17.2A7.2 7.2 0 012.8 10H1.2a8.8 8.8 0 008.8 8.8v-1.6zM2.8 10A7.2 7.2 0 0110 2.8V1.2A8.8 8.8 0 001.2 10h1.6zM10 2.8a7.2 7.2 0 017.2 7.2h1.6A8.8 8.8 0 0010 1.2v1.6zm-3.2 8h6.4V9.2H6.8v1.6z" fill="#7F56D9"/></svg><svg fill="none" viewBox="0 0 20 20" id="plu" xmlns="http://www.w3.org/2000/svg"><path d="M10.8 6.8a.8.8 0 00-1.6 0h1.6zm-1.6 6.4a.8.8 0 001.6 0H9.2zm-2.4-4a.8.8 0 100 1.6V9.2zm6.4 1.6a.8.8 0 000-1.6v1.6zm4-.8a7.2 7.2 0 01-7.2 7.2v1.6a8.8 8.8 0 008.8-8.8h-1.6zM10 17.2A7.2 7.2 0 012.8 10H1.2a8.8 8.8 0 008.8 8.8v-1.6zM2.8 10A7.2 7.2 0 0110 2.8V1.2A8.8 8.8 0 001.2 10h1.6zM10 2.8a7.2 7.2 0 017.2 7.2h1.6A8.8 8.8 0 0010 1.2v1.6zm-.8 4v6.4h1.6V6.8H9.2zm-2.4 4h6.4V9.2H6.8v1.6z" fill="#7F56D9"/></svg><svg fill="none" viewBox="0 0 20 20" id="s" xmlns="http://www.w3.org/2000/svg"><path d="M17.434 18.566a.8.8 0 001.132-1.132l-1.132 1.132zM14.7 13.568a.8.8 0 00-1.131 1.131l1.131-1.131zm.723-4.457a6.311 6.311 0 01-6.31 6.311v1.6a7.911 7.911 0 007.91-7.91h-1.6zm-6.31 6.311A6.311 6.311 0 012.8 9.112H1.2a7.911 7.911 0 007.911 7.91v-1.6zM2.8 9.112A6.311 6.311 0 019.111 2.8V1.2A7.911 7.911 0 001.2 9.111h1.6zM9.111 2.8a6.311 6.311 0 016.311 6.311h1.6A7.911 7.911 0 009.112 1.2v1.6zm9.455 14.634l-3.867-3.866-1.131 1.131 3.866 3.867 1.132-1.132z" fill="#98A2B3"/></svg></svg>