<svg width="20" height="20" viewBox="0 0 20 20" fill="none" xmlns="http://www.w3.org/2000/svg">
<path d="M10 12L9.43431 12.5657C9.74673 12.8781 10.2533 12.8781 10.5657 12.5657L10 12ZM14.5657 8.56572C14.8781 8.2533 14.8781 7.74677 14.5657 7.43435C14.2533 7.12193 13.7467 7.12193 13.4343 7.43435L14.5657 8.56572ZM6.56569 7.43435C6.25327 7.12193 5.74673 7.12193 5.43431 7.43435C5.12189 7.74677 5.12189 8.2533 5.43431 8.56572L6.56569 7.43435ZM13.4343 7.43435L9.43431 11.4344L10.5657 12.5657L14.5657 8.56572L13.4343 7.43435ZM10.5657 11.4344L6.56569 7.43435L5.43431 8.56572L9.43431 12.5657L10.5657 11.4344Z" fill="#101828"/>
</svg>
