<svg width="20" height="20" viewBox="0 0 20 20" fill="none" xmlns="http://www.w3.org/2000/svg">
<path d="M12.9657 8.16569C13.2781 7.85327 13.2781 7.34673 12.9657 7.03431C12.6533 6.7219 12.1467 6.7219 11.8343 7.03431L12.9657 8.16569ZM7.03431 11.8343C6.7219 12.1467 6.7219 12.6533 7.03431 12.9657C7.34673 13.2781 7.85327 13.2781 8.16569 12.9657L7.03431 11.8343ZM8.16569 7.03431C7.85327 6.7219 7.34673 6.7219 7.03431 7.03431C6.7219 7.34673 6.7219 7.85327 7.03431 8.16569L8.16569 7.03431ZM11.8343 12.9657C12.1467 13.2781 12.6533 13.2781 12.9657 12.9657C13.2781 12.6533 13.2781 12.1467 12.9657 11.8343L11.8343 12.9657ZM17.2 10C17.2 13.9765 13.9765 17.2 10 17.2V18.8C14.8601 18.8 18.8 14.8601 18.8 10H17.2ZM10 17.2C6.02355 17.2 2.8 13.9765 2.8 10H1.2C1.2 14.8601 5.13989 18.8 10 18.8V17.2ZM2.8 10C2.8 6.02355 6.02355 2.8 10 2.8V1.2C5.13989 1.2 1.2 5.13989 1.2 10H2.8ZM10 2.8C13.9765 2.8 17.2 6.02355 17.2 10H18.8C18.8 5.13989 14.8601 1.2 10 1.2V2.8ZM11.8343 7.03431L7.03431 11.8343L8.16569 12.9657L12.9657 8.16569L11.8343 7.03431ZM7.03431 8.16569L11.8343 12.9657L12.9657 11.8343L8.16569 7.03431L7.03431 8.16569Z" fill="#101828"/>
</svg>
